<?xml version="1.0" encoding="UTF-8"?>
<svg width="39px" height="65px" viewBox="0 0 39 65" version="1.1" xmlns="http://www.w3.org/2000/svg" xmlns:xlink="http://www.w3.org/1999/xlink">
    <title>Combined Shape Copy 2</title>
    <g id="Symbols" stroke="none" stroke-width="1" fill="none" fill-rule="evenodd">
        <g id="1440-DK" transform="translate(-731.000000, -10.000000)" fill="#000000" fill-rule="nonzero">
            <path d="M736.497716,69.6418 C738.423716,69.6418 739.333216,70.7011 739.333216,72.0493 C739.333216,72.7769 739.055016,73.3226 738.648416,73.5901 L738.648416,73.5901 L739.204816,73.5901 L739.204816,74.6601 L733.951116,74.6601 C732.185616,74.6601 731.329616,73.5794 731.329616,71.9744 C731.329616,71.5357 731.372416,71.1505 731.436616,70.7546 L731.436616,70.7546 L732.378216,70.7546 C732.281916,71.097 732.239116,71.4394 732.239116,71.846 C732.239116,72.8625 732.656416,73.5901 733.919016,73.5901 L733.919016,73.5901 L734.357716,73.5901 C733.983216,73.2905 733.662216,72.7341 733.662216,71.9744 C733.662216,70.7011 734.561016,69.6418 736.497716,69.6418 Z M736.497716,70.7653 C735.192316,70.7653 734.561016,71.3217 734.561016,72.2205 C734.561016,73.0551 735.181616,73.6436 736.497716,73.6436 C737.792416,73.6436 738.434416,73.0551 738.434416,72.2205 C738.434416,71.3217 737.792416,70.7653 736.497716,70.7653 Z M739.204816,63.5856 L739.204816,64.677 L738.605616,64.677 C738.958716,64.998 739.333216,65.5758 739.333216,66.4104 C739.333216,67.6944 738.520016,68.3364 737.193216,68.3364 L737.193216,68.3364 L733.790616,68.3364 L733.790616,67.245 L737.150416,67.245 C738.006416,67.245 738.413016,66.8063 738.413016,66.1108 C738.413016,65.4046 737.899416,64.891 737.375116,64.677 L737.375116,64.677 L733.790616,64.677 L733.790616,63.5856 L739.204816,63.5856 Z M739.204816,60.6003 L739.204816,61.6917 L733.790616,61.6917 L733.790616,60.6003 L739.204816,60.6003 Z M741.291316,60.6003 L741.291316,61.6917 L739.996616,61.6917 L739.996616,60.6003 L741.291316,60.6003 Z M767.057148,57.187 L767.057148,58.2463 L766.233248,58.2463 C766.832448,58.5994 767.057148,59.0809 767.057148,60.0653 L767.057148,60.0653 L766.083448,60.0653 C766.083448,58.8669 765.751748,58.4282 765.077648,58.2463 L765.077648,58.2463 L761.642948,58.2463 L761.642948,57.187 L767.057148,57.187 Z M739.204816,56.5022 L739.204816,57.5615 L738.380916,57.5615 C738.980116,57.9146 739.204816,58.3961 739.204816,59.3805 L739.204816,59.3805 L738.231116,59.3805 C738.231116,58.1821 737.899416,57.7434 737.225316,57.5615 L737.225316,57.5615 L733.790616,57.5615 L733.790616,56.5022 L739.204816,56.5022 Z M767.057148,50.7135 L767.057148,51.8049 L763.686648,51.8049 C762.830648,51.8049 762.434748,52.2115 762.434748,52.8749 C762.434748,53.5597 762.926948,54.0733 763.397748,54.2766 L763.397748,54.2766 L767.057148,54.2766 L767.057148,55.368 L761.642948,55.368 L761.642948,54.2766 L762.242148,54.2766 C761.856948,53.9663 761.514548,53.4099 761.514548,52.6181 C761.514548,51.3555 762.327748,50.7135 763.654548,50.7135 L763.654548,50.7135 L767.057148,50.7135 Z M736.433516,50.0608 C738.156216,50.0608 739.343916,51.1094 739.343916,52.5967 C739.343916,54.1054 738.370216,55.047 736.497716,55.047 L736.497716,55.047 L736.219516,55.047 L736.219516,51.1843 C735.235116,51.2271 734.561016,51.7514 734.561016,52.6823 C734.561016,53.4527 734.978316,53.87 735.417016,53.9342 L735.417016,53.9342 L735.417016,55.0149 C734.400516,54.9079 733.640816,54.0305 733.640816,52.6823 C733.640816,51.0452 734.732216,50.0608 736.433516,50.0608 Z M737.011316,51.2164 L737.011316,53.9235 C737.813816,53.8914 738.455816,53.4741 738.455816,52.5967 C738.455816,51.8156 737.888716,51.3127 737.011316,51.2164 L737.011316,51.2164 Z M767.057148,46.2837 L767.057148,47.1825 L768.341148,47.1825 L768.341148,48.2418 L767.057148,48.2418 L767.057148,49.4616 L766.233248,49.4616 L766.233248,48.2418 L763.087448,48.2418 C762.712948,48.2418 762.541748,48.3809 762.541748,48.7875 L762.541748,48.7875 L762.541748,49.6542 L761.642948,49.6542 L761.642948,48.6912 C761.642948,47.6319 762.060248,47.1825 763.044648,47.1825 L763.044648,47.1825 L766.233248,47.1825 L766.233248,46.2837 L767.057148,46.2837 Z M739.204816,44.2721 L739.204816,45.1067 L734.989016,46.8508 L739.204816,48.5949 L739.204816,49.3974 L738.477216,49.3974 L733.790616,47.3644 L733.790616,46.2837 L738.477216,44.2721 L739.204816,44.2721 Z M769.453948,41.0835 L769.453948,42.1428 L764.478448,42.1428 L767.057148,44.7536 L767.057148,45.417 L766.329548,45.417 L764.745948,43.7478 L762.370548,45.631 L761.642948,45.631 L761.642948,44.8713 L764.039748,43.0095 L763.226548,42.1428 L761.642948,42.1428 L761.642948,41.0835 L769.453948,41.0835 Z M739.204816,40.9872 L739.204816,42.0465 L738.380916,42.0465 C738.980116,42.3996 739.204816,42.8811 739.204816,43.8655 L739.204816,43.8655 L738.231116,43.8655 C738.231116,42.6671 737.899416,42.2284 737.225316,42.0465 L737.225316,42.0465 L733.790616,42.0465 L733.790616,40.9872 L739.204816,40.9872 Z M753.187892,38.5797 L753.187892,39.6711 L752.588692,39.6711 C752.941792,39.9921 753.316292,40.5699 753.316292,41.4045 C753.316292,42.6885 752.503092,43.3305 751.176292,43.3305 L751.176292,43.3305 L747.773692,43.3305 L747.773692,42.2391 L751.133492,42.2391 C751.989492,42.2391 752.396092,41.8004 752.396092,41.1049 C752.396092,40.3987 751.882492,39.8851 751.358192,39.6711 L751.358192,39.6711 L747.773692,39.6711 L747.773692,38.5797 L753.187892,38.5797 Z M764.285848,34.61 C766.008548,34.61 767.196248,35.6586 767.196248,37.1459 C767.196248,38.6546 766.222548,39.5962 764.350048,39.5962 L764.350048,39.5962 L764.071848,39.5962 L764.071848,35.7335 C763.087448,35.7763 762.413348,36.3006 762.413348,37.2315 C762.413348,38.0019 762.830648,38.4192 763.269348,38.4834 L763.269348,38.4834 L763.269348,39.5641 C762.252848,39.4571 761.493148,38.5797 761.493148,37.2315 C761.493148,35.5944 762.584548,34.61 764.285848,34.61 Z M736.433516,34.5458 C738.156216,34.5458 739.343916,35.5944 739.343916,37.0817 C739.343916,38.5904 738.370216,39.532 736.497716,39.532 L736.497716,39.532 L736.219516,39.532 L736.219516,35.6693 C735.235116,35.7121 734.561016,36.2364 734.561016,37.1673 C734.561016,37.9377 734.978316,38.355 735.417016,38.4192 L735.417016,38.4192 L735.417016,39.4999 C734.400516,39.3929 733.640816,38.5155 733.640816,37.1673 C733.640816,35.5302 734.732216,34.5458 736.433516,34.5458 Z M764.863648,35.7656 L764.863648,38.4727 C765.666148,38.4406 766.308148,38.0233 766.308148,37.1459 C766.308148,36.3648 765.741048,35.8619 764.863648,35.7656 L764.863648,35.7656 Z M737.011316,35.7014 L737.011316,38.4085 C737.813816,38.3764 738.455816,37.9591 738.455816,37.0817 C738.455816,36.3006 737.888716,35.7977 737.011316,35.7014 L737.011316,35.7014 Z M750.480792,31.7531 C752.406792,31.7531 753.316292,32.8124 753.316292,34.1606 C753.316292,34.8882 753.038092,35.4339 752.631492,35.7014 L752.631492,35.7014 L753.187892,35.7014 L753.187892,36.7714 L747.934192,36.7714 C746.168692,36.7714 745.312692,35.6907 745.312692,34.0857 C745.312692,33.647 745.355492,33.2618 745.419692,32.8659 L745.419692,32.8659 L746.361292,32.8659 C746.264992,33.2083 746.222192,33.5507 746.222192,33.9573 C746.222192,34.9738 746.639492,35.7014 747.902092,35.7014 L747.902092,35.7014 L748.340792,35.7014 C747.966292,35.4018 747.645292,34.8454 747.645292,34.0857 C747.645292,32.8124 748.544092,31.7531 750.480792,31.7531 Z M750.480792,32.8766 C749.175392,32.8766 748.544092,33.433 748.544092,34.3318 C748.544092,35.1664 749.164692,35.7549 750.480792,35.7549 C751.775492,35.7549 752.417492,35.1664 752.417492,34.3318 C752.417492,33.433 751.775492,32.8766 750.480792,32.8766 Z M767.057148,30.4905 L767.057148,31.3893 L768.341148,31.3893 L768.341148,32.4486 L767.057148,32.4486 L767.057148,33.6684 L766.233248,33.6684 L766.233248,32.4486 L763.087448,32.4486 C762.712948,32.4486 762.541748,32.5877 762.541748,32.9943 L762.541748,32.9943 L762.541748,33.861 L761.642948,33.861 L761.642948,32.898 C761.642948,31.8387 762.060248,31.3893 763.044648,31.3893 L763.044648,31.3893 L766.233248,31.3893 L766.233248,30.4905 L767.057148,30.4905 Z M735.417016,29.1423 L735.417016,30.223 C734.839216,30.2444 734.507516,30.7473 734.507516,31.4214 C734.507516,32.0955 734.796416,32.4914 735.235116,32.4914 C735.695216,32.4914 735.898516,32.2988 736.144616,31.2288 C736.412116,30.0197 736.765216,29.3135 737.749616,29.3135 C738.712616,29.3135 739.343916,30.1695 739.343916,31.3465 C739.343916,32.4914 738.787516,33.4223 737.685416,33.4223 L737.685416,33.4223 L737.685416,32.3416 C738.231116,32.3202 738.487916,31.828 738.487916,31.3037 C738.487916,30.7687 738.220416,30.3942 737.813816,30.3942 C737.396516,30.3835 737.246716,30.651 737.043416,31.5284 C736.733116,32.898 736.380016,33.5721 735.310016,33.5721 C734.250716,33.5721 733.651516,32.684 733.651516,31.3893 C733.651516,30.0732 734.293516,29.1423 735.417016,29.1423 L735.417016,29.1423 Z M753.187892,29.2065 L753.187892,30.2979 L747.773692,30.2979 L747.773692,29.2065 L753.187892,29.2065 Z M755.274392,29.2065 L755.274392,30.2979 L753.979692,30.2979 L753.979692,29.2065 L755.274392,29.2065 Z M767.057148,28.19 L767.057148,29.2814 L761.642948,29.2814 L761.642948,28.19 L767.057148,28.19 Z M769.143648,28.19 L769.143648,29.2814 L767.848948,29.2814 L767.848948,28.19 L769.143648,28.19 Z M739.204816,23.1503 L739.204816,24.2417 L738.605616,24.2417 C738.958716,24.5627 739.333216,25.1405 739.333216,25.9751 C739.333216,27.2591 738.520016,27.9011 737.193216,27.9011 L737.193216,27.9011 L733.790616,27.9011 L733.790616,26.8097 L737.150416,26.8097 C738.006416,26.8097 738.413016,26.371 738.413016,25.6755 C738.413016,24.9693 737.899416,24.4557 737.375116,24.2417 L737.375116,24.2417 L733.790616,24.2417 L733.790616,23.1503 L739.204816,23.1503 Z M749.400092,23.3001 L749.400092,24.3808 C748.822292,24.4022 748.490592,24.9051 748.490592,25.5792 C748.490592,26.2533 748.779492,26.6492 749.218192,26.6492 C749.678292,26.6492 749.881592,26.4566 750.127692,25.3866 C750.395192,24.1775 750.748292,23.4713 751.732692,23.4713 C752.695692,23.4713 753.326992,24.3273 753.326992,25.5043 C753.326992,26.6492 752.770592,27.5801 751.668492,27.5801 L751.668492,27.5801 L751.668492,26.4994 C752.214192,26.478 752.470992,25.9858 752.470992,25.4615 C752.470992,24.9265 752.203492,24.552 751.796892,24.552 C751.379592,24.5413 751.229792,24.8088 751.026492,25.6862 C750.716192,27.0558 750.363092,27.7299 749.293092,27.7299 C748.233792,27.7299 747.634592,26.8418 747.634592,25.5471 C747.634592,24.231 748.276592,23.3001 749.400092,23.3001 L749.400092,23.3001 Z M769.453948,22.2194 L769.453948,23.2787 L764.478448,23.2787 L767.057148,25.8895 L767.057148,26.5529 L766.329548,26.5529 L764.745948,24.8837 L762.370548,26.7669 L761.642948,26.7669 L761.642948,26.0072 L764.039748,24.1454 L763.226548,23.2787 L761.642948,23.2787 L761.642948,22.2194 L769.453948,22.2194 Z M750.416592,17.3616 C752.139292,17.3616 753.326992,18.4102 753.326992,19.8975 C753.326992,21.4062 752.353292,22.3478 750.480792,22.3478 L750.480792,22.3478 L750.202592,22.3478 L750.202592,18.4851 C749.218192,18.5279 748.544092,19.0522 748.544092,19.9831 C748.544092,20.7535 748.961392,21.1708 749.400092,21.235 L749.400092,21.235 L749.400092,22.3157 C748.383592,22.2087 747.623892,21.3313 747.623892,19.9831 C747.623892,18.346 748.715292,17.3616 750.416592,17.3616 Z M736.497716,16.4949 C738.295316,16.4949 739.354616,17.5221 739.354616,19.1271 C739.354616,20.7428 738.295316,21.77 736.497716,21.77 C734.689416,21.77 733.640816,20.7428 733.640816,19.1271 C733.640816,17.5221 734.689416,16.4949 736.497716,16.4949 Z M750.994392,18.5172 L750.994392,21.2243 C751.796892,21.1922 752.438892,20.7749 752.438892,19.8975 C752.438892,19.1164 751.871792,18.6135 750.994392,18.5172 L750.994392,18.5172 Z M767.057148,18.1748 L767.057148,19.2341 L766.233248,19.2341 C766.832448,19.5872 767.057148,20.0687 767.057148,21.0531 L767.057148,21.0531 L766.083448,21.0531 C766.083448,19.8547 765.751748,19.416 765.077648,19.2341 L765.077648,19.2341 L761.642948,19.2341 L761.642948,18.1748 L767.057148,18.1748 Z M736.497716,17.6184 C735.192316,17.6184 734.528916,18.2176 734.528916,19.1271 C734.528916,20.0473 735.192316,20.6465 736.497716,20.6465 C737.803116,20.6465 738.455816,20.0473 738.455816,19.1271 C738.455816,18.2176 737.803116,17.6184 736.497716,17.6184 Z M762.370548,10 L769.453948,12.8997 L769.453948,14.1195 L762.370548,17.0085 L761.642948,17.0085 L761.642948,16.1525 L764.146748,15.1467 L764.146748,11.8511 L761.642948,10.856 L761.642948,10 L762.370548,10 Z M755.584692,10 L755.584692,12.6001 C755.584692,15.1895 754.182992,16.3237 751.668492,16.3237 C749.175392,16.3237 747.773692,15.1895 747.773692,12.6001 L747.773692,12.6001 L747.773692,10 L755.584692,10 Z M741.601616,10 L741.601616,11.07 L737.867316,11.07 L741.601616,14.6759 L741.601616,15.3821 L740.874016,15.3821 L738.434416,12.9532 L734.518216,15.6282 L733.790616,15.6282 L733.790616,14.815 L737.664016,12.1935 L736.519116,11.07 L733.790616,11.07 L733.790616,10 L741.601616,10 Z M754.632392,11.0914 L748.725992,11.0914 L748.725992,12.5787 C748.725992,14.3335 749.635492,15.2109 751.668492,15.2109 C753.744292,15.2109 754.632392,14.3335 754.632392,12.5787 L754.632392,12.5787 L754.632392,11.0914 Z M765.088348,12.2256 L765.088348,14.7722 L768.276948,13.5096 L765.088348,12.2256 Z" id="Combined-Shape-Copy-2"></path>
        </g>
    </g>
</svg>